<svg preserveAspectRatio="none" overflow="visible" style="display: block;" width="7.4237" height="7.04496" viewBox="0 0 7.4237 7.04496" fill="none" xmlns="http://www.w3.org/2000/svg">
<path id="Vector" d="M2.63921 0.0822171C5.62422 -0.398585 7.54058 1.2579 7.41302 4.30394C7.3894 4.86772 7.54202 6.54937 7.15777 6.94432L7.00957 6.92479C6.82021 6.61658 6.81017 6.06217 6.77463 5.68102C6.5312 5.76886 5.85805 6.33386 5.61616 6.5241C5.45406 6.60985 5.28864 6.68886 5.12013 6.76114C3.18699 7.57123 0.984376 6.58049 0.234537 4.63709C-0.0962969 3.7908 -0.0764336 2.84752 0.289713 2.01591C0.781219 0.914048 1.59054 0.495925 2.63921 0.0822171ZM2.19692 0.842541C1.37072 1.5873 0.749215 2.17923 0.688963 3.40535C0.649788 4.20705 0.936481 4.99043 1.48371 5.57762C2.10036 6.23619 3.1061 6.60598 4.00194 6.56582C5.91775 5.89731 6.42294 5.36574 6.87913 3.38383C6.31535 1.40379 5.52258 0.429714 3.31864 0.588289L2.19692 0.842541Z" fill="white" fill-opacity="0.7"/>
</svg>
